<svg version="1.1" id="Layer_1" xmlns="http://www.w3.org/2000/svg" xmlns:xlink="http://www.w3.org/1999/xlink" x="0px" y="0px"
	 width="100%" viewBox="0 0 512 512" enable-background="new 0 0 512 512" xml:space="preserve">
<path fill="#FDFEFE" opacity="1.000000" stroke="none" 
	d="
M513.000000,81.000000 
	C513.000000,155.687561 513.000000,230.375122 512.550049,305.531494 
	C509.794739,306.144135 507.490753,306.383911 505.183929,306.415619 
	C493.434937,306.577332 481.684937,306.761780 469.935974,306.724976 
	C468.274780,306.719788 466.617279,305.544373 464.949585,304.519135 
	C465.166870,303.157043 465.382874,302.184052 465.619843,301.216156 
	C477.536438,252.539444 484.449707,203.536545 474.847504,153.531158 
	C471.021820,133.607986 466.368622,114.055023 454.143280,97.060043 
	C439.196075,76.281204 418.639923,69.120934 394.353027,77.001785 
	C381.366638,81.215729 369.937958,88.194977 359.263062,96.492760 
	C352.723419,101.576134 346.421356,106.965149 340.008850,111.827621 
	C332.267334,90.446869 320.735016,71.779259 306.026398,54.939049 
	C287.804199,34.076077 259.862518,29.211952 236.864075,44.530983 
	C215.009537,59.088051 199.109390,79.326340 187.043655,102.513710 
	C181.462204,113.239906 176.445435,124.259933 170.856110,134.981903 
	C155.119278,124.143425 139.224792,114.443024 121.587578,107.631264 
	C108.549690,102.595833 95.476768,99.204330 81.372414,99.882324 
	C67.605705,100.544067 56.987793,106.504898 48.781475,117.342941 
	C38.112698,131.433151 35.224014,147.921417 35.241318,164.839294 
	C35.255859,179.062302 36.590782,193.324860 38.055466,207.496063 
	C40.336922,229.569855 46.485680,250.752441 54.224808,271.491394 
	C58.516094,282.990967 62.819309,294.486053 66.722427,306.141479 
	C64.380692,306.533569 62.430523,306.993439 60.487152,306.966339 
	C40.657467,306.689667 20.828888,306.333740 1.000000,306.000000 
	C1.000000,230.312439 1.000000,154.624878 1.360526,78.404633 
	C2.476628,76.293983 3.476074,74.785851 3.950865,73.127495 
	C10.162270,51.432266 21.899401,33.456051 40.108585,20.007563 
	C50.278988,12.496157 61.567398,7.096220 73.841476,3.801165 
	C75.368286,3.391286 76.620537,1.958700 78.000000,1.000001 
	C196.687561,1.000000 315.375122,1.000000 434.595337,1.360543 
	C436.376434,2.423126 437.569794,3.256772 438.882202,3.806035 
	C448.015320,7.628335 457.815674,10.326648 466.196472,15.383484 
	C487.168060,28.037411 500.759674,46.827209 508.093719,70.214653 
	C509.266602,73.954811 511.341888,77.412003 513.000000,81.000000 
z"/>
<path fill="#CCCCCC" opacity="1.000000" stroke="none" 
	d="
M430.000000,513.000000 
	C315.311310,513.000000 200.622650,513.000000 85.261948,512.693237 
	C76.203239,509.656097 67.690308,507.250305 59.482819,504.058990 
	C55.341141,502.448578 51.752777,499.415131 48.391430,497.016968 
	C187.588409,497.007294 326.308167,497.005829 464.842926,497.284485 
	C456.185638,504.548065 445.941986,507.388000 435.622986,510.133911 
	C433.635193,510.662842 431.868652,512.023193 430.000000,513.000000 
z"/>
<path fill="#E3E5E4" opacity="1.000000" stroke="none" 
	d="
M1.000001,433.000000 
	C1.000000,425.645752 1.000000,418.291504 1.468657,410.468628 
	C45.065434,410.000000 88.193565,410.012695 131.321609,409.957520 
	C133.215439,409.955109 135.108475,409.331696 137.302399,409.140869 
	C148.407059,418.515350 159.211166,427.746552 169.721863,437.277588 
	C167.452225,437.718292 165.476074,437.981354 163.499802,437.982208 
	C110.334557,438.005402 57.169296,438.001617 3.858814,437.673798 
	C2.809061,435.896759 1.904532,434.448395 1.000001,433.000000 
z"/>
<path fill="#F6F6F6" opacity="1.000000" stroke="none" 
	d="
M1.000000,306.468658 
	C20.828888,306.333740 40.657467,306.689667 60.487152,306.966339 
	C62.430523,306.993439 64.380692,306.533569 67.011459,306.309570 
	C72.479691,314.883728 77.264191,323.448059 82.162712,332.339417 
	C85.184647,338.444305 88.092552,344.222168 90.555290,349.999939 
	C60.406750,350.333282 30.703375,350.666626 1.000000,351.000000 
	C1.000000,336.312439 1.000000,321.624878 1.000000,306.468658 
z"/>
<path fill="#EAEAEA" opacity="1.000000" stroke="none" 
	d="
M137.001877,408.997528 
	C135.108475,409.331696 133.215439,409.955109 131.321609,409.957520 
	C88.193565,410.012695 45.065434,410.000000 1.468657,410.000000 
	C1.000000,401.312439 1.000000,392.624878 1.468657,383.468262 
	C38.990936,382.656311 76.044556,382.313477 113.422234,382.026093 
	C116.155495,384.388580 118.564705,386.695587 121.015205,389.349060 
	C126.371628,396.129486 131.686752,402.563507 137.001877,408.997528 
z"/>
<path fill="#F0F0F0" opacity="1.000000" stroke="none" 
	d="
M113.098175,381.970642 
	C76.044556,382.313477 38.990936,382.656311 1.468657,382.999573 
	C1.000000,372.645782 1.000000,362.291534 1.000000,351.468658 
	C30.703375,350.666626 60.406750,350.333282 90.826904,350.193695 
	C95.694923,356.108673 99.961960,361.750397 103.960861,367.576172 
	C107.175056,372.258728 110.064590,377.164124 113.098175,381.970642 
z"/>
<path fill="#E3E3E3" opacity="1.000000" stroke="none" 
	d="
M513.000000,410.000000 
	C513.000000,416.354401 513.000000,422.708801 512.644409,429.586639 
	C511.192322,432.740051 510.095795,435.370026 508.530670,438.000153 
	C478.964478,437.667023 449.867188,437.302490 420.769135,437.016998 
	C410.279663,436.914093 399.788055,437.040375 389.298157,436.962372 
	C387.546143,436.949371 385.797943,436.425049 384.266815,435.878479 
	C393.995117,426.764191 403.504547,417.908417 413.315796,409.338379 
	C415.430420,409.749420 417.243164,409.982635 419.056091,409.983917 
	C450.370728,410.006226 481.685364,410.000000 513.000000,410.000000 
z"/>
<path fill="#E9EAEA" opacity="1.000000" stroke="none" 
	d="
M513.000000,409.531342 
	C481.685364,410.000000 450.370728,410.006226 419.056091,409.983917 
	C417.243164,409.982635 415.430420,409.749420 413.441772,409.015869 
	C420.170349,398.587646 427.074707,388.767700 434.154388,379.279541 
	C436.283447,380.402130 438.197479,381.742249 440.197968,381.886871 
	C448.131470,382.460510 456.089905,382.878754 464.042877,382.953064 
	C480.360626,383.105591 496.680817,382.999603 513.000000,383.000000 
	C513.000000,391.687561 513.000000,400.375122 513.000000,409.531342 
z"/>
<path fill="#F5F6F6" opacity="1.000000" stroke="none" 
	d="
M464.958069,304.910614 
	C466.617279,305.544373 468.274780,306.719788 469.935974,306.724976 
	C481.684937,306.761780 493.434937,306.577332 505.183929,306.415619 
	C507.490753,306.383911 509.794739,306.144135 512.550049,306.000183 
	C513.000000,320.687561 513.000000,335.375122 512.532593,350.531372 
	C507.246460,350.904053 502.427979,350.740479 497.609009,350.725525 
	C486.189514,350.690033 474.765808,350.902130 463.352051,350.647339 
	C458.570160,350.540588 453.603394,353.312256 449.016571,349.570801 
	C450.089996,346.101807 451.067139,342.995758 452.176270,339.937561 
	C456.413849,328.253571 460.693909,316.584961 464.958069,304.910614 
z"/>
<path fill="#EFF0F0" opacity="1.000000" stroke="none" 
	d="
M448.980927,349.955750 
	C453.603394,353.312256 458.570160,350.540588 463.352051,350.647339 
	C474.765808,350.902130 486.189514,350.690033 497.609009,350.725525 
	C502.427979,350.740479 507.246460,350.904053 512.532593,351.000031 
	C513.000000,361.354218 513.000000,371.708466 513.000000,382.531342 
	C496.680817,382.999603 480.360626,383.105591 464.042877,382.953064 
	C456.089905,382.878754 448.131470,382.460510 440.197968,381.886871 
	C438.197479,381.742249 436.283447,380.402130 434.190430,378.919006 
	C439.027710,368.803009 444.004303,359.379364 448.980927,349.955750 
z"/>
<path fill="#F7F7F7" opacity="1.000000" stroke="none" 
	d="
M508.999268,438.000000 
	C510.095795,435.370026 511.192322,432.740051 512.644409,430.055054 
	C513.000000,457.593567 513.000000,485.187134 513.000000,513.000000 
	C485.646149,513.000000 458.291748,513.000000 430.468658,513.000000 
	C431.868652,512.023193 433.635193,510.662842 435.622986,510.133911 
	C445.941986,507.388000 456.185638,504.548065 465.161102,497.147583 
	C467.440552,495.821228 469.488403,495.221924 470.944031,493.946625 
	C476.089691,489.438538 481.032623,484.699036 486.314972,479.845673 
	C491.376831,472.765289 496.176147,465.886475 501.123962,458.692322 
	C505.347687,452.153320 508.074158,445.418182 508.999268,438.000000 
z"/>
<path fill="#F7F7F7" opacity="1.000000" stroke="none" 
	d="
M1.000001,433.468658 
	C1.904532,434.448395 2.809061,435.896759 3.862633,438.066223 
	C6.686328,445.528107 9.360982,452.268951 12.065364,459.359131 
	C16.753090,466.142761 21.411089,472.577026 26.093910,479.353149 
	C31.603582,487.710754 39.339184,492.895813 47.914230,497.025116 
	C51.752777,499.415131 55.341141,502.448578 59.482819,504.058990 
	C67.690308,507.250305 76.203239,509.656097 84.794960,512.693237 
	C57.074890,513.000000 29.149780,513.000000 1.000000,513.000000 
	C1.000000,486.646210 1.000000,460.291748 1.000001,433.468658 
z"/>
<path fill="#F7F7F7" opacity="1.000000" stroke="none" 
	d="
M513.000000,80.531342 
	C511.341888,77.412003 509.266602,73.954811 508.093719,70.214653 
	C500.759674,46.827209 487.168060,28.037411 466.196472,15.383484 
	C457.815674,10.326648 448.015320,7.628335 438.882202,3.806035 
	C437.569794,3.256772 436.376434,2.423126 435.063965,1.360543 
	C460.927826,1.000000 486.855621,1.000000 513.000000,1.000000 
	C513.000000,27.353832 513.000000,53.708260 513.000000,80.531342 
z"/>
<path fill="#F7F7F7" opacity="1.000000" stroke="none" 
	d="
M77.531342,1.000001 
	C76.620537,1.958700 75.368286,3.391286 73.841476,3.801165 
	C61.567398,7.096220 50.278988,12.496157 40.108585,20.007563 
	C21.899401,33.456051 10.162270,51.432266 3.950865,73.127495 
	C3.476074,74.785851 2.476628,76.293983 1.360526,77.935974 
	C1.000000,52.406452 1.000000,26.812902 1.000000,1.000000 
	C26.353806,1.000000 51.708244,1.000000 77.531342,1.000001 
z"/>
<path fill="#1A6A5F" opacity="1.000000" stroke="none" 
	d="
M449.016571,349.570801 
	C444.004303,359.379364 439.027710,368.803009 434.015076,378.587189 
	C427.074707,388.767700 420.170349,398.587646 413.140015,408.730133 
	C403.504547,417.908417 393.995117,426.764191 383.941406,435.965271 
	C371.090149,445.474487 357.620026,452.391663 342.684143,457.190826 
	C328.536926,460.393372 314.761414,463.600586 301.068909,466.465393 
	C316.684174,459.487579 330.800385,450.588501 341.673798,437.599976 
	C353.415436,423.574219 362.410980,407.664764 368.584198,390.446472 
	C376.571899,368.167175 379.329132,344.783691 380.859894,321.330414 
	C381.644409,309.310486 381.503021,297.171234 380.877075,285.132874 
	C380.079346,269.791962 379.099487,254.391830 376.884552,239.208862 
	C373.258179,214.349930 367.862549,189.805588 359.822845,165.937927 
	C356.447144,155.916428 352.723541,146.012344 349.178528,136.047607 
	C347.098816,130.201736 345.205383,124.282990 342.897949,118.529434 
	C342.327484,117.107010 340.471130,116.200287 339.296692,114.767731 
	C339.595886,113.724937 339.804260,112.970924 340.012604,112.216911 
	C346.421356,106.965149 352.723419,101.576134 359.263062,96.492760 
	C369.937958,88.194977 381.366638,81.215729 394.353027,77.001785 
	C418.639923,69.120934 439.196075,76.281204 454.143280,97.060043 
	C466.368622,114.055023 471.021820,133.607986 474.847504,153.531158 
	C484.449707,203.536545 477.536438,252.539444 465.619843,301.216156 
	C465.382874,302.184052 465.166870,303.157043 464.949585,304.519135 
	C460.693909,316.584961 456.413849,328.253571 452.176270,339.937561 
	C451.067139,342.995758 450.089996,346.101807 449.016571,349.570801 
z"/>
<path fill="#C1E5E1" opacity="1.000000" stroke="none" 
	d="
M82.048683,332.012390 
	C77.264191,323.448059 72.479691,314.883728 67.406174,306.151306 
	C62.819309,294.486053 58.516094,282.990967 54.224808,271.491394 
	C46.485680,250.752441 40.336922,229.569855 38.055466,207.496063 
	C36.590782,193.324860 35.255859,179.062302 35.241318,164.839294 
	C35.224014,147.921417 38.112698,131.433151 48.781475,117.342941 
	C56.987793,106.504898 67.605705,100.544067 81.372414,99.882324 
	C95.476768,99.204330 108.549690,102.595833 121.587578,107.631264 
	C139.224792,114.443024 155.119278,124.143425 170.874359,135.214905 
	C171.209137,135.612732 171.285706,136.075333 171.140228,136.415680 
	C165.428970,152.191864 159.088776,167.400497 154.478012,183.116516 
	C147.470901,207.000641 143.128265,231.471191 140.698364,256.318207 
	C138.295319,280.890961 138.819611,305.390442 139.978699,329.952148 
	C129.754364,330.647156 120.022034,331.576111 110.268890,331.927612 
	C100.873337,332.266205 91.456291,332.008240 82.048683,332.012390 
z"/>
<path fill="#67C0B4" opacity="1.000000" stroke="none" 
	d="
M171.285706,136.075333 
	C171.285706,136.075333 171.209137,135.612732 171.190887,135.379730 
	C176.445435,124.259933 181.462204,113.239906 187.043655,102.513710 
	C199.109390,79.326340 215.009537,59.088051 236.864075,44.530983 
	C259.862518,29.211952 287.804199,34.076077 306.026398,54.939049 
	C320.735016,71.779259 332.267334,90.446869 340.008850,111.827621 
	C339.804260,112.970924 339.595886,113.724937 338.989655,114.917725 
	C323.519043,132.226639 308.402435,149.057983 293.428497,166.015305 
	C291.528656,168.166779 290.375671,170.977753 288.606079,173.662704 
	C287.194092,173.654175 286.042969,173.256561 284.912750,173.309097 
	C263.660767,174.297089 242.411240,175.338409 221.100189,176.001190 
	C219.486755,173.735062 218.194473,171.519913 216.336746,169.992508 
	C208.419327,163.483002 200.455444,157.016800 192.273743,150.846100 
	C185.447372,145.697601 178.294159,140.982422 171.285706,136.075333 
z"/>
<path fill="#D1D1D1" opacity="1.000000" stroke="none" 
	d="
M48.391430,497.016968 
	C39.339184,492.895813 31.603582,487.710754 26.554670,479.350525 
	C178.121353,479.004395 329.252106,478.998993 480.382843,479.044586 
	C482.272797,479.045166 484.162567,479.698578 486.052429,480.047272 
	C481.032623,484.699036 476.089691,489.438538 470.944031,493.946625 
	C469.488403,495.221924 467.440552,495.821228 465.346130,496.867432 
	C326.308167,497.005829 187.588409,497.007294 48.391430,497.016968 
z"/>
<path fill="#DDDDDD" opacity="1.000000" stroke="none" 
	d="
M12.035636,459.009796 
	C9.360982,452.268951 6.686328,445.528107 4.007855,438.394836 
	C57.169296,438.001617 110.334557,438.005402 163.499802,437.982208 
	C165.476074,437.981354 167.452225,437.718292 170.035599,437.418793 
	C183.751343,443.851410 196.859924,450.442719 209.675278,457.324463 
	C186.997910,458.076660 164.615219,458.827789 142.229340,458.938324 
	C98.832382,459.152588 55.433640,459.006531 12.035636,459.009796 
z"/>
<path fill="#B1D7D0" opacity="1.000000" stroke="none" 
	d="
M209.968506,457.033997 
	C196.859924,450.442719 183.751343,443.851410 170.329010,437.118958 
	C159.211166,427.746552 148.407059,418.515350 137.302399,409.140869 
	C131.686752,402.563507 126.371628,396.129486 121.452606,389.348206 
	C131.536194,388.668091 141.225174,388.371124 150.909439,387.962128 
	C152.294113,387.903656 153.655914,387.303223 155.299561,387.159637 
	C161.115692,396.794525 165.543243,407.151428 172.441208,415.456451 
	C186.229034,432.056793 203.140396,445.332825 222.683792,454.783936 
	C231.302658,458.951965 240.404861,462.120575 248.841507,465.818542 
	C235.586426,462.940765 222.777466,459.987396 209.968506,457.033997 
z"/>
<path fill="#B9DDD9" opacity="1.000000" stroke="none" 
	d="
M155.028290,386.953613 
	C153.655914,387.303223 152.294113,387.903656 150.909439,387.962128 
	C141.225174,388.371124 131.536194,388.668091 121.411316,389.001770 
	C118.564705,386.695587 116.155495,384.388580 113.422234,382.026093 
	C110.064590,377.164124 107.175056,372.258728 103.960861,367.576172 
	C99.961960,361.750397 95.694923,356.108673 91.272064,350.193726 
	C88.092552,344.222168 85.184647,338.444305 82.162712,332.339417 
	C91.456291,332.008240 100.873337,332.266205 110.268890,331.927612 
	C120.022034,331.576111 129.754364,330.647156 140.154510,330.269867 
	C142.938263,339.717377 145.063309,348.865723 147.119110,358.401886 
	C149.709351,368.177643 152.368820,377.565643 155.028290,386.953613 
z"/>
<path fill="#DCDEDD" opacity="1.000000" stroke="none" 
	d="
M343.055817,457.195465 
	C357.620026,452.391663 371.090149,445.474487 383.722534,436.223816 
	C385.797943,436.425049 387.546143,436.949371 389.298157,436.962372 
	C399.788055,437.040375 410.279663,436.914093 420.769135,437.016998 
	C449.867188,437.302490 478.964478,437.667023 508.530670,438.000153 
	C508.074158,445.418182 505.347687,452.153320 500.658020,458.689636 
	C454.967682,458.668335 409.891876,458.329956 364.815948,458.005920 
	C359.155609,457.965240 353.493744,458.057983 347.834717,457.963318 
	C346.237915,457.936615 344.648590,457.463715 343.055817,457.195465 
z"/>
<path fill="#D7D7D7" opacity="1.000000" stroke="none" 
	d="
M342.684143,457.190826 
	C344.648590,457.463715 346.237915,457.936615 347.834717,457.963318 
	C353.493744,458.057983 359.155609,457.965240 364.815948,458.005920 
	C409.891876,458.329956 454.967682,458.668335 500.509521,459.004974 
	C496.176147,465.886475 491.376831,472.765289 486.314972,479.845673 
	C484.162567,479.698578 482.272797,479.045166 480.382843,479.044586 
	C329.252106,478.998993 178.121353,479.004395 26.529846,479.008667 
	C21.411089,472.577026 16.753090,466.142761 12.065364,459.359131 
	C55.433640,459.006531 98.832382,459.152588 142.229340,458.938324 
	C164.615219,458.827789 186.997910,458.076660 209.675278,457.324463 
	C222.777466,459.987396 235.586426,462.940765 249.232239,465.890076 
	C254.365707,466.390228 258.662323,466.894470 263.375427,467.413391 
	C276.189911,467.221313 288.587891,467.014557 300.985870,466.807800 
	C314.761414,463.600586 328.536926,460.393372 342.684143,457.190826 
z"/>
<path fill="#0A6357" opacity="1.000000" stroke="none" 
	d="
M301.068909,466.465393 
	C288.587891,467.014557 276.189911,467.221313 263.202667,467.057190 
	C232.452240,459.164520 212.865036,440.596558 204.340164,410.634430 
	C200.184280,396.027893 198.784515,381.157654 201.366608,366.061096 
	C213.018036,370.779510 224.619415,374.310883 236.973663,373.938934 
	C253.591415,373.438599 270.308594,373.508972 286.777802,371.580872 
	C303.016449,369.679749 319.011841,365.654358 335.070526,362.349762 
	C336.397552,362.076660 338.283478,360.273224 338.402985,359.035370 
	C339.601746,346.617493 338.475891,334.303528 336.459595,321.826874 
	C335.235718,321.999756 334.395752,322.004059 333.628937,322.243103 
	C301.115112,332.378906 267.830383,336.428711 233.833679,335.039215 
	C222.027267,334.556671 217.568863,331.279175 216.467514,319.795166 
	C215.650452,311.275604 216.194824,302.599274 216.603607,294.015228 
	C216.668472,292.653076 219.086899,290.492981 220.644028,290.267365 
	C227.875580,289.219635 235.174438,288.335144 242.472092,288.098999 
	C268.756287,287.248383 295.048279,286.617828 321.340424,286.044006 
	C330.887726,285.835632 330.883942,286.014709 331.005554,276.703888 
	C331.025085,275.206848 331.209534,273.711304 331.213654,272.214813 
	C331.235413,264.296051 331.223877,256.377167 331.223877,247.892441 
	C322.176880,247.892441 314.213989,247.682434 306.265564,247.932281 
	C283.491486,248.648148 260.723267,249.550476 237.985947,249.994461 
	C240.024780,245.857101 241.969955,242.070938 244.048050,238.359192 
	C248.998657,229.516754 254.012054,220.709473 259.404785,211.771210 
	C283.853027,211.654404 307.896545,211.654404 332.670410,211.654404 
	C332.670410,199.700455 332.670410,187.478867 332.670410,174.224380 
	C318.321655,173.981537 303.599152,173.732361 288.876678,173.483185 
	C290.375671,170.977753 291.528656,168.166779 293.428497,166.015305 
	C308.402435,149.057983 323.519043,132.226639 338.898804,115.206512 
	C340.471130,116.200287 342.327484,117.107010 342.897949,118.529434 
	C345.205383,124.282990 347.098816,130.201736 349.178528,136.047607 
	C352.723541,146.012344 356.447144,155.916428 359.822845,165.937927 
	C367.862549,189.805588 373.258179,214.349930 376.884552,239.208862 
	C379.099487,254.391830 380.079346,269.791962 380.877075,285.132874 
	C381.503021,297.171234 381.644409,309.310486 380.859894,321.330414 
	C379.329132,344.783691 376.571899,368.167175 368.584198,390.446472 
	C362.410980,407.664764 353.415436,423.574219 341.673798,437.599976 
	C330.800385,450.588501 316.684174,459.487579 301.068909,466.465393 
z"/>
<path fill="#4FB6A7" opacity="1.000000" stroke="none" 
	d="
M147.188354,358.014099 
	C145.063309,348.865723 142.938263,339.717377 140.637405,330.251282 
	C138.819611,305.390442 138.295319,280.890961 140.698364,256.318207 
	C143.128265,231.471191 147.470901,207.000641 154.478012,183.116516 
	C159.088776,167.400497 165.428970,152.191864 171.140228,136.415680 
	C178.294159,140.982422 185.447372,145.697601 192.273743,150.846100 
	C200.455444,157.016800 208.419327,163.483002 216.336746,169.992508 
	C218.194473,171.519913 219.486755,173.735062 220.725281,176.177856 
	C206.867249,178.153320 193.331131,179.669662 179.772781,180.950699 
	C176.745865,181.236710 175.323868,182.810394 175.594055,185.365387 
	C176.741394,196.214539 178.167542,207.034195 179.491348,217.860535 
	C181.876984,217.996292 183.817078,218.106689 185.981720,218.229874 
	C185.981720,219.344131 186.071762,220.161987 185.968536,220.954681 
	C183.458237,240.231445 180.642899,259.473816 178.491043,278.790192 
	C176.799194,293.977081 175.288422,309.265320 177.929764,324.521790 
	C179.768387,335.141602 181.726578,345.771271 187.831238,355.189880 
	C181.748840,355.666931 175.962524,355.753540 170.185303,356.030304 
	C166.793991,356.192780 163.417145,356.657867 159.601608,356.991150 
	C155.175735,357.335022 151.182037,357.674561 147.188354,358.014099 
z"/>
<path fill="#FBFDFD" opacity="1.000000" stroke="none" 
	d="
M188.131149,354.879303 
	C181.726578,345.771271 179.768387,335.141602 177.929764,324.521790 
	C175.288422,309.265320 176.799194,293.977081 178.491043,278.790192 
	C180.642899,259.473816 183.458237,240.231445 185.968536,220.954681 
	C186.071762,220.161987 185.981720,219.344131 185.981720,218.229874 
	C183.817078,218.106689 181.876984,217.996292 179.491348,217.860535 
	C178.167542,207.034195 176.741394,196.214539 175.594055,185.365387 
	C175.323868,182.810394 176.745865,181.236710 179.772781,180.950699 
	C193.331131,179.669662 206.867249,178.153320 220.786301,176.545242 
	C242.411240,175.338409 263.660767,174.297089 284.912750,173.309097 
	C286.042969,173.256561 287.194092,173.654175 288.606079,173.662704 
	C303.599152,173.732361 318.321655,173.981537 332.670410,174.224380 
	C332.670410,187.478867 332.670410,199.700455 332.670410,211.654404 
	C307.896545,211.654404 283.853027,211.654404 259.111084,211.559753 
	C248.652283,211.995255 238.896164,212.649826 229.129089,212.982376 
	C226.060272,213.086868 224.633179,214.067032 224.260864,217.158035 
	C223.666534,222.092331 222.666397,226.976547 222.011185,231.904999 
	C221.145752,238.414749 220.447693,244.946762 219.554932,252.509018 
	C226.282074,251.730362 232.117401,251.054932 237.952744,250.379486 
	C260.723267,249.550476 283.491486,248.648148 306.265564,247.932281 
	C314.213989,247.682434 322.176880,247.892441 331.223877,247.892441 
	C331.223877,256.377167 331.235413,264.296051 331.213654,272.214813 
	C331.209534,273.711304 331.025085,275.206848 331.005554,276.703888 
	C330.883942,286.014709 330.887726,285.835632 321.340424,286.044006 
	C295.048279,286.617828 268.756287,287.248383 242.472092,288.098999 
	C235.174438,288.335144 227.875580,289.219635 220.644028,290.267365 
	C219.086899,290.492981 216.668472,292.653076 216.603607,294.015228 
	C216.194824,302.599274 215.650452,311.275604 216.467514,319.795166 
	C217.568863,331.279175 222.027267,334.556671 233.833679,335.039215 
	C267.830383,336.428711 301.115112,332.378906 333.628937,322.243103 
	C334.395752,322.004059 335.235718,321.999756 336.459595,321.826874 
	C338.475891,334.303528 339.601746,346.617493 338.402985,359.035370 
	C338.283478,360.273224 336.397552,362.076660 335.070526,362.349762 
	C319.011841,365.654358 303.016449,369.679749 286.777802,371.580872 
	C270.308594,373.508972 253.591415,373.438599 236.973663,373.938934 
	C224.619415,374.310883 213.018036,370.779510 201.199738,365.768250 
	C196.863266,362.589233 193.061966,359.718719 189.192200,356.559570 
	C188.792877,355.807068 188.462021,355.343201 188.131149,354.879303 
z"/>
<path fill="#4AB1A2" opacity="1.000000" stroke="none" 
	d="
M189.260666,356.848145 
	C193.061966,359.718719 196.863266,362.589233 200.831421,365.752563 
	C198.784515,381.157654 200.184280,396.027893 204.340164,410.634430 
	C212.865036,440.596558 232.452240,459.164520 262.786194,467.042511 
	C258.662323,466.894470 254.365707,466.390228 249.678345,465.814453 
	C240.404861,462.120575 231.302658,458.951965 222.683792,454.783936 
	C203.140396,445.332825 186.229034,432.056793 172.441208,415.456451 
	C165.543243,407.151428 161.115692,396.794525 155.299561,387.159637 
	C152.368820,377.565643 149.709351,368.177643 147.119110,358.401917 
	C151.182037,357.674561 155.175735,357.335022 160.066376,356.992493 
	C170.395767,356.942413 179.828217,356.895294 189.260666,356.848145 
z"/>
<path fill="#54B5A7" opacity="1.000000" stroke="none" 
	d="
M237.985947,249.994461 
	C232.117401,251.054932 226.282074,251.730362 219.554932,252.509018 
	C220.447693,244.946762 221.145752,238.414749 222.011185,231.904999 
	C222.666397,226.976547 223.666534,222.092331 224.260864,217.158035 
	C224.633179,214.067032 226.060272,213.086868 229.129089,212.982376 
	C238.896164,212.649826 248.652283,211.995255 258.706360,211.676544 
	C254.012054,220.709473 248.998657,229.516754 244.048050,238.359192 
	C241.969955,242.070938 240.024780,245.857101 237.985947,249.994461 
z"/>
<path fill="#6AC7BA" opacity="1.000000" stroke="none" 
	d="
M189.192200,356.559570 
	C179.828217,356.895294 170.395767,356.942413 160.498566,356.988159 
	C163.417145,356.657867 166.793991,356.192780 170.185303,356.030304 
	C175.962524,355.753540 181.748840,355.666931 187.831238,355.189880 
	C188.462021,355.343201 188.792877,355.807068 189.192200,356.559570 
z"/>
</svg>